<svg width="24" height="15" viewBox="0 0 24 15" fill="none" xmlns="http://www.w3.org/2000/svg">
<path fill-rule="evenodd" clip-rule="evenodd" d="M23.4498 1.80445C23.6158 1.25845 23.4498 0.856445 22.6548 0.856445H20.0298C19.3618 0.856445 19.0538 1.20345 18.8868 1.58645C18.8868 1.58645 17.5518 4.78245 15.6608 6.85845C15.0488 7.46045 14.7708 7.65145 14.4368 7.65145C14.2698 7.65145 14.0188 7.46045 14.0188 6.91345V1.80445C14.0188 1.14845 13.8348 0.856445 13.2788 0.856445H9.15076C8.73376 0.856445 8.48276 1.16045 8.48276 1.44945C8.48276 2.07045 9.42876 2.21445 9.52576 3.96245V7.76045C9.52576 8.59345 9.37276 8.74444 9.03876 8.74444C8.14876 8.74444 5.98376 5.53345 4.69876 1.85945C4.44976 1.14445 4.19776 0.856445 3.52676 0.856445H0.899756C0.149756 0.856445 -0.000244141 1.20345 -0.000244141 1.58645C-0.000244141 2.26845 0.889756 5.65645 4.14476 10.1374C6.31476 13.1974 9.36976 14.8564 12.1528 14.8564C13.8218 14.8564 14.0278 14.4884 14.0278 13.8534V11.5404C14.0278 10.8034 14.1858 10.6564 14.7148 10.6564C15.1048 10.6564 15.7718 10.8484 17.3298 12.3234C19.1098 14.0724 19.4028 14.8564 20.4048 14.8564H23.0298C23.7798 14.8564 24.1558 14.4884 23.9398 13.7604C23.7018 13.0364 22.8518 11.9854 21.7248 10.7384C21.1128 10.0284 20.1948 9.26345 19.9158 8.88045C19.5268 8.38945 19.6378 8.17045 19.9158 7.73345C19.9158 7.73345 23.1158 3.30745 23.4488 1.80445H23.4498Z" fill="#83B3D3"/>
</svg>
